<?xml version="1.0" encoding="UTF-8" standalone="no"?>
<!-- Generator: Adobe Illustrator 12.0.1, SVG Export Plug-In . SVG Version: 6.00 Build 51448)  -->

<svg
   xmlns:dc="http://purl.org/dc/elements/1.1/"
   xmlns:cc="http://creativecommons.org/ns#"
   xmlns:rdf="http://www.w3.org/1999/02/22-rdf-syntax-ns#"
   xmlns:svg="http://www.w3.org/2000/svg"
   xmlns="http://www.w3.org/2000/svg"
   xmlns:sodipodi="http://sodipodi.sourceforge.net/DTD/sodipodi-0.dtd"
   xmlns:inkscape="http://www.inkscape.org/namespaces/inkscape"
   version="1.1"
   id="Layer_1"
   width="615.01202"
   height="899.25"
   viewBox="0 0 615.01204 899.25"
   overflow="visible"
   enable-background="new 0 0 753.35 2040.391"
   xml:space="preserve"
   inkscape:version="0.91 r13725"
   sodipodi:docname="Alphabet13LetterP.svg"
   style="overflow:visible"><sodipodi:namedview
     pagecolor="#ffffff"
     bordercolor="#666666"
     borderopacity="1"
     objecttolerance="10"
     gridtolerance="10"
     guidetolerance="10"
     inkscape:pageopacity="1"
     inkscape:pageshadow="2"
     inkscape:window-width="1600"
     inkscape:window-height="837"
     id="namedview1923"
     showgrid="false"
     inkscape:zoom="0.74506533"
     inkscape:cx="307.50601"
     inkscape:cy="449.625"
     inkscape:window-x="-8"
     inkscape:window-y="-8"
     inkscape:window-maximized="1"
     inkscape:current-layer="Layer_1"
     showguides="false"
     fit-margin-top="0"
     fit-margin-left="0"
     fit-margin-right="0"
     fit-margin-bottom="0" /><metadata
     id="metadata1927"><rdf:RDF><cc:Work
         rdf:about=""><dc:format>image/svg+xml</dc:format><dc:type
           rdf:resource="http://purl.org/dc/dcmitype/StillImage" /><dc:title></dc:title></cc:Work></rdf:RDF></metadata><defs
     id="defs1925"><filter
       style="color-interpolation-filters:sRGB"
       inkscape:label="Blur"
       id="filter35393"><feGaussianBlur
         stdDeviation="2 2"
         result="blur"
         id="feGaussianBlur35395" /></filter><filter
       inkscape:menu-tooltip="Bright metallic effect for any color"
       inkscape:menu="Bevels"
       inkscape:label="Blur"
       style="color-interpolation-filters:sRGB"
       id="filter35643"
       height="1"
       width="1"
       y="0"
       x="0"><feGaussianBlur
         result="result6"
         stdDeviation="8"
         in="SourceGraphic"
         id="feGaussianBlur35645" /><feComposite
         in2="SourceGraphic"
         in="result6"
         operator="xor"
         result="result10"
         id="feComposite35647" /><feGaussianBlur
         result="result2"
         stdDeviation="8"
         id="feGaussianBlur35649" /><feComposite
         in2="SourceGraphic"
         operator="atop"
         in="result10"
         result="result91"
         id="feComposite35651" /><feComposite
         result="result4"
         in="result2"
         operator="xor"
         in2="result91"
         id="feComposite35653" /><feGaussianBlur
         in="result4"
         result="result3"
         stdDeviation="4"
         id="feGaussianBlur35655" /><feSpecularLighting
         result="result5"
         specularExponent="5"
         specularConstant="1.10000002"
         surfaceScale="18"
         id="feSpecularLighting35657"><feDistantLight
           azimuth="235"
           elevation="55"
           id="feDistantLight35659" /></feSpecularLighting><feComposite
         in="result3"
         k3="1.1"
         k2="0.5"
         operator="arithmetic"
         result="result7"
         in2="result5"
         k1="0.5"
         id="feComposite35661"
         k4="0" /><feComposite
         in="result7"
         operator="atop"
         in2="SourceGraphic"
         result="fbSourceGraphic"
         id="feComposite35663" /><feColorMatrix
         result="fbSourceGraphicAlpha"
         in="fbSourceGraphic"
         values="0 0 0 -1 0 0 0 0 -1 0 0 0 0 -1 0 0 0 0 1 0"
         id="feColorMatrix36075" /><feGaussianBlur
         id="feGaussianBlur36077"
         stdDeviation="2 2"
         result="blur"
         in="fbSourceGraphic" /><feColorMatrix
         id="feColorMatrix36079"
         values="1 0 0 0 0 0 1 0 0 0 0 0 1 0 0 0 0 0 50 0 "
         result="colormatrix" /><feComposite
         id="feComposite36081"
         in2="fbSourceGraphic"
         in="colormatrix"
         operator="in" /></filter></defs><g
     id="g36424"
     transform="matrix(5,0,0,5,-358.96909,-5877.8525)"><path
       d="m 184.54602,1234.123 c 0,16.002 -4.695,30.238 -14.086,42.709 -9.734,12.984 -21.316,19.477 -34.748,19.477 -4.725,0 -8.736,-1.256 -12.037,-3.77 -3.586,-2.74 -5.379,-6.225 -5.379,-10.451 0,-2.684 0.816,-5.066 2.449,-7.152 1.633,-2.084 3.68,-3.127 6.145,-3.127 1.312,0 2.525,0.158 3.637,0.471 1.111,0.314 1.895,0.785 2.352,1.41 0.455,0.57 0.342,0.971 -0.342,1.197 -1.881,0.971 -3.049,1.797 -3.504,2.48 -0.742,1.199 -1.111,2.881 -1.111,5.047 0,2.908 1.277,5.189 3.836,6.842 2.16,1.369 4.746,2.053 7.758,2.053 8.695,0 16.084,-5.293 22.166,-15.881 5.91,-10.301 8.865,-22.426 8.865,-36.371 0,-11.441 -2.564,-21.316 -7.689,-29.627 -5.641,-9.164 -13.047,-13.746 -22.217,-13.746 -7.18,0 -13.445,2.135 -18.799,6.4 -5.697,4.496 -8.545,10.1 -8.545,16.814 l 0,85.518 c 0,10.469 -2.021,19.09 -6.061,25.861 -4.041,6.77 -8.850001,10.156 -14.426001,10.156 -2.676,0 -4.908,-0.564 -6.701,-1.691 -1.793,-1.131 -2.688,-2.77 -2.688,-4.92 -0.172,-1.367 -0.029,-2.551 0.426,-3.545 0.453,-0.998 1.107,-1.811 1.961,-2.438 0.396,-0.285 0.736,-0.426 1.021,-0.426 0.512,0 0.684,0.312 0.514,0.939 -0.229,0.969 -0.285,1.822 -0.172,2.562 0.227,1.195 0.65,2.107 1.275,2.734 0.852,0.855 2.043,1.283 3.574,1.283 0.453,0 0.822,-0.029 1.107,-0.086 2.949,-0.398 5.047,-2.35 6.295,-5.852 1.248001,-3.506 1.873001,-8.332 1.873001,-14.482 l 0,-105.264 c -1.363001,0.395 -2.883001,0.691 -4.559001,0.889 -1.676,0.198 -3.676,0.295 -6.004,0.295 -2.271,0 -4.287,-0.748 -6.047,-2.246 -1.762,-1.496 -2.641,-3.348 -2.641,-5.553 0,-3.785 1.82,-6.047 5.463,-6.781 0.684,-0.113 1.139,-0.17 1.367,-0.17 0.91,0 1.535,0.17 1.879,0.51 0.568,0.396 0.854,0.736 0.854,1.018 0,0.285 -0.398,0.568 -1.195,0.85 -0.912,0.453 -1.367,1.416 -1.367,2.887 0,0.285 0,0.539 0,0.764 0.113,0.227 0.17,0.369 0.17,0.426 0.398,1.02 1.125,1.697 2.18,2.037 1.053,0.34 2.377,0.51 3.971,0.51 0.684,0 1.195,0 1.539,0 1.879,0 5.465001,-1.219 10.762001,-3.658 6.947,-3.176 12.301,-5.418 16.061,-6.723 7.289,-2.496 14.008,-3.744 20.158,-3.744 11.445,0 21.127,4.357 29.043,13.068 7.744,8.543 11.617,18.709 11.617,30.497 z"
       id="path35319"
       inkscape:connector-curvature="0"
       style="fill:#000000;fill-opacity:1;stroke:none;stroke-width:4;stroke-miterlimit:4;stroke-dasharray:none;stroke-opacity:1;filter:url(#filter35393)" /><path
       style="fill:#ffcd00;fill-opacity:1;stroke:none;stroke-width:4;stroke-miterlimit:4;stroke-dasharray:none;stroke-opacity:1;filter:url(#filter35643)"
       inkscape:connector-curvature="0"
       id="path1185"
       d="m 179.879,1229.456 c 0,16.002 -4.695,30.238 -14.086,42.709 -9.734,12.984 -21.316,19.477 -34.748,19.477 -4.725,0 -8.736,-1.256 -12.037,-3.77 -3.586,-2.74 -5.379,-6.225 -5.379,-10.451 0,-2.684 0.816,-5.066 2.449,-7.152 1.633,-2.084 3.68,-3.127 6.145,-3.127 1.312,0 2.525,0.158 3.637,0.471 1.111,0.314 1.895,0.785 2.352,1.41 0.455,0.57 0.342,0.971 -0.342,1.197 -1.881,0.971 -3.049,1.797 -3.504,2.48 -0.742,1.199 -1.111,2.881 -1.111,5.047 0,2.908 1.277,5.189 3.836,6.842 2.16,1.369 4.746,2.053 7.758,2.053 8.695,0 16.084,-5.293 22.166,-15.881 5.91,-10.301 8.865,-22.426 8.865,-36.371 0,-11.441 -2.564,-21.316 -7.689,-29.627 -5.641,-9.164 -13.047,-13.746 -22.217,-13.746 -7.18,0 -13.445,2.135 -18.799,6.4 -5.697,4.496 -8.545,10.1 -8.545,16.814 l 0,85.518 c 0,10.469 -2.021,19.09 -6.061,25.861 -4.041,6.77 -8.85,10.156 -14.426,10.156 -2.676,0 -4.908,-0.564 -6.701,-1.691 -1.793,-1.131 -2.688,-2.77 -2.688,-4.92 -0.172,-1.367 -0.029,-2.551 0.426,-3.545 0.453,-0.998 1.107,-1.811 1.961,-2.438 0.396,-0.285 0.736,-0.426 1.021,-0.426 0.512,0 0.684,0.312 0.514,0.939 -0.229,0.969 -0.285,1.822 -0.172,2.562 0.227,1.195 0.65,2.107 1.275,2.734 0.852,0.855 2.043,1.283 3.574,1.283 0.453,0 0.822,-0.029 1.107,-0.086 2.949,-0.398 5.047,-2.35 6.295,-5.852 1.248,-3.506 1.873,-8.332 1.873,-14.482 l 0,-105.264 c -1.363,0.395 -2.883,0.691 -4.559,0.889 -1.676,0.198 -3.676,0.295 -6.004,0.295 -2.271,0 -4.287,-0.748 -6.047,-2.246 -1.762,-1.496 -2.641,-3.348 -2.641,-5.553 0,-3.785 1.82,-6.047 5.463,-6.781 0.684,-0.113 1.139,-0.17 1.367,-0.17 0.91,0 1.535,0.17 1.879,0.51 0.568,0.396 0.854,0.736 0.854,1.018 0,0.285 -0.398,0.568 -1.195,0.85 -0.912,0.453 -1.367,1.416 -1.367,2.887 0,0.285 0,0.539 0,0.764 0.113,0.227 0.17,0.369 0.17,0.426 0.398,1.02 1.125,1.697 2.18,2.037 1.053,0.34 2.377,0.51 3.971,0.51 0.684,0 1.195,0 1.539,0 1.879,0 5.465,-1.219 10.762,-3.658 6.947,-3.176 12.301,-5.418 16.061,-6.723 7.289,-2.496 14.008,-3.744 20.158,-3.744 11.445,0 21.127,4.357 29.043,13.068 7.744,8.543 11.617,18.709 11.617,30.497 z" /><path
       d="m 179.879,1229.456 c 0,16.002 -4.695,30.238 -14.086,42.709 -9.734,12.984 -21.316,19.477 -34.748,19.477 -4.725,0 -8.736,-1.256 -12.037,-3.77 -3.586,-2.74 -5.379,-6.225 -5.379,-10.451 0,-2.684 0.816,-5.066 2.449,-7.152 1.633,-2.084 3.68,-3.127 6.145,-3.127 1.312,0 2.525,0.158 3.637,0.471 1.111,0.314 1.895,0.785 2.352,1.41 0.455,0.57 0.342,0.971 -0.342,1.197 -1.881,0.971 -3.049,1.797 -3.504,2.48 -0.742,1.199 -1.111,2.881 -1.111,5.047 0,2.908 1.277,5.189 3.836,6.842 2.16,1.369 4.746,2.053 7.758,2.053 8.695,0 16.084,-5.293 22.166,-15.881 5.91,-10.301 8.865,-22.426 8.865,-36.371 0,-11.441 -2.564,-21.316 -7.689,-29.627 -5.641,-9.164 -13.047,-13.746 -22.217,-13.746 -7.18,0 -13.445,2.135 -18.799,6.4 -5.697,4.496 -8.545,10.1 -8.545,16.814 l 0,85.518 c 0,10.469 -2.021,19.09 -6.061,25.861 -4.041,6.77 -8.85,10.156 -14.426,10.156 -2.676,0 -4.908,-0.564 -6.701,-1.691 -1.793,-1.131 -2.688,-2.77 -2.688,-4.92 -0.172,-1.367 -0.029,-2.551 0.426,-3.545 0.453,-0.998 1.107,-1.811 1.961,-2.438 0.396,-0.285 0.736,-0.426 1.021,-0.426 0.512,0 0.684,0.312 0.514,0.939 -0.229,0.969 -0.285,1.822 -0.172,2.562 0.227,1.195 0.65,2.107 1.275,2.734 0.852,0.855 2.043,1.283 3.574,1.283 0.453,0 0.822,-0.029 1.107,-0.086 2.949,-0.398 5.047,-2.35 6.295,-5.852 1.248,-3.506 1.873,-8.332 1.873,-14.482 l 0,-105.264 c -1.363,0.395 -2.883,0.691 -4.559,0.889 -1.676,0.198 -3.676,0.295 -6.004,0.295 -2.271,0 -4.287,-0.748 -6.047,-2.246 -1.762,-1.496 -2.641,-3.348 -2.641,-5.553 0,-3.785 1.82,-6.047 5.463,-6.781 0.684,-0.113 1.139,-0.17 1.367,-0.17 0.91,0 1.535,0.17 1.879,0.51 0.568,0.396 0.854,0.736 0.854,1.018 0,0.285 -0.398,0.568 -1.195,0.85 -0.912,0.453 -1.367,1.416 -1.367,2.887 0,0.285 0,0.539 0,0.764 0.113,0.227 0.17,0.369 0.17,0.426 0.398,1.02 1.125,1.697 2.18,2.037 1.053,0.34 2.377,0.51 3.971,0.51 0.684,0 1.195,0 1.539,0 1.879,0 5.465,-1.219 10.762,-3.658 6.947,-3.176 12.301,-5.418 16.061,-6.723 7.289,-2.496 14.008,-3.744 20.158,-3.744 11.445,0 21.127,4.357 29.043,13.068 7.744,8.543 11.617,18.709 11.617,30.497 z"
       id="path36233"
       inkscape:connector-curvature="0"
       style="opacity:0.40100002;fill:#ffcd00;fill-opacity:1;stroke:none;stroke-width:4;stroke-miterlimit:4;stroke-dasharray:none;stroke-opacity:1" /></g></svg>